<?xml version="1.0" standalone="no"?>
<!DOCTYPE svg PUBLIC "-//W3C//DTD SVG 20010904//EN"
 "http://www.w3.org/TR/2001/REC-SVG-20010904/DTD/svg10.dtd">
<svg version="1.0" xmlns="http://www.w3.org/2000/svg"
 width="1667.000000pt" height="552.000000pt" viewBox="0 0 1667.000000 552.000000"
 preserveAspectRatio="xMidYMid meet">

<g transform="translate(0.000000,552.000000) scale(0.100000,-0.100000)"
fill="#000000" stroke="none">
<path d="M1294 2774 c-692 -1510 -1261 -2750 -1262 -2755 -2 -5 292 -9 695 -9
l698 0 848 1893 c466 1040 852 1899 857 1907 5 8 11 12 13 10 2 -3 394 -861
872 -1908 l869 -1902 692 0 692 0 498 840 c275 462 501 840 504 840 3 0 255
-378 559 -840 l554 -840 1709 2 1710 3 850 1905 c467 1048 853 1908 857 1913
4 4 399 -853 877 -1905 l871 -1913 691 -3 692 -2 -33 72 c-19 40 -580 1280
-1247 2756 l-1214 2682 -624 -2 -625 -3 -1017 -2238 c-559 -1230 -1020 -2240
-1023 -2244 -4 -3 -7 1005 -7 2240 l0 2247 -1254 0 -1254 0 -522 -796 c-288
-437 -526 -792 -530 -787 -4 4 -218 362 -476 796 l-468 787 -664 0 -664 0 14
-22 c8 -13 346 -611 752 -1330 l737 -1306 -432 -751 c-237 -413 -434 -751
-438 -751 -4 0 -433 935 -953 2078 l-945 2077 -600 3 -599 2 -1260 -2746z
m8326 59 c0 -1603 -4 -2543 -9 -2538 -6 6 -377 581 -825 1278 l-815 1268 786
1217 c432 669 801 1241 820 1270 18 28 36 52 38 52 3 0 5 -1146 5 -2547z"/>
</g>
</svg>
