<svg id="Layer_1" data-name="Layer 1" xmlns="http://www.w3.org/2000/svg" viewBox="0 0 252.28 144.57"><defs><style>.cls-1{fill:#fff;}</style></defs><path class="cls-1" d="M138.38,113.79c-4.62,0-8.95,0-13.28,0a1.74,1.74,0,0,1-1.74-1.19q-4-8.3-8-16.59a16.19,16.19,0,0,0-.88-1.36L112,100q-2.51,5.31-5,10.64c-.27.58-.54,1.18-.76,1.78a1.85,1.85,0,0,1-1.91,1.44q-11,0-22.07,0a1.43,1.43,0,0,1-1.62-1.28c-.52-3.13-1.85-6-2.6-9.07A1.82,1.82,0,0,0,76,101.82c-5.28.09-10.56.08-15.84,0-1.34,0-1.83.49-2.13,1.76-.72,3-1.6,5.86-2.5,8.76-.23.74-.53,1.49-1.69,1.47-3.79-.09-7.59,0-11.46,0,1.49-5.92,3.58-11.56,5.34-17.29,1.37-4.46,2.78-8.9,4.19-13.35,1.56-4.89,3.15-9.77,4.71-14.66,1.71-5.34,3.44-10.68,5.08-16,.21-.68.48-.82,1.07-.81,3.56,0,7.12,0,10.68,0,.78,0,1.1.24,1.32,1,1.87,6.87,4.25,13.59,6.4,20.38s4.16,13.31,6.47,19.89c1.82,5.17,3.27,10.47,4.89,15.71a7,7,0,0,0,.48.94,44.64,44.64,0,0,0,3.61-6.46c3.52-6.64,6.92-13.35,10.44-20,.81-1.51-.44-2.45-.92-3.31-3.35-6-6.12-12.36-9.44-18.41-1.58-2.87-2.83-5.92-4.39-8.81-.56-1,0-1,.61-1h12.28c.46,0,.82,0,1.1.59,2.45,5.39,5.5,10.49,7.79,16,.18.42.35.82.79.85s.58-.47.76-.84c2.56-5.16,5.15-10.31,7.69-15.48a1.57,1.57,0,0,1,1.58-1.1c3.74.05,7.48,0,11.21,0,1,0,1.25.22.74,1.2-3.06,5.78-6.07,11.58-9.09,17.38-1.85,3.56-3.67,7.14-5.54,10.69a1.56,1.56,0,0,0,0,1.64q4.78,9.15,9.52,18.33C133.92,105.07,136.07,109.29,138.38,113.79ZM73.89,88.85C72,82.29,70.17,75.92,68.34,69.54l-.61.11a21.1,21.1,0,0,1-.79,3.56c-1.87,4.7-2.87,9.65-4.32,14.47-.2.65-.37,1.17.61,1.17Z"/><path class="cls-1" d="M209.91,113.79c-4.22,0-8.25,0-12.27,0-.87,0-1.11-.59-1.29-1.22-.86-3-1.7-5.94-2.51-8.93a2.13,2.13,0,0,0-2.47-1.84c-5.22.13-10.44.12-15.65,0-1.4,0-1.8.54-2.09,1.7-.71,2.89-1.48,5.78-2.31,8.64a2,2,0,0,1-2.25,1.68c-3.67-.14-7.34,0-11.07,0,1.84-7.63,4.62-14.83,6.82-22.22,1.87-6.25,3.91-12.48,6-18.69,2.21-6.69,4.3-13.42,6.37-20.16a1.34,1.34,0,0,1,1.53-1.1c3.38.05,6.76.1,10.14,0,1.31,0,1.48.91,1.71,1.62,1.89,5.78,3.67,11.6,5.5,17.4,2.63,8.29,5.15,16.61,7.94,24.84,1.28,3.77,2.27,7.63,3.57,11.39C208.31,109.06,209.05,111.27,209.91,113.79Zm-26-44.28c-1.14.69-.78,1.66-1,2.42-1.67,5.16-3.25,10.35-4.64,15.6-.34,1.28.18,1.35,1.19,1.34,2.72,0,5.44,0,8.16,0,2.14,0,2.14-.07,1.42-2.16s-1.33-4.21-1.95-6.33C186,76.79,185,73.21,183.94,69.51Z"/><path class="cls-1" d="M141.79,82.68c0-9.72.05-19.45,0-29.17,0-1.64.49-2,2-1.9,3,.11,5.93.06,8.89,0,1,0,1.46.14,1.45,1.33q0,29.79,0,59.59c0,.86-.15,1.29-1.15,1.27-3.32,0-6.64-.07-10,0-1.37,0-1.16-.79-1.16-1.61Z"/></svg>